<?xml version="1.0" encoding="UTF-8"?>
<svg width="119px" height="20px" viewBox="0 0 119 20" version="1.1" xmlns="http://www.w3.org/2000/svg" xmlns:xlink="http://www.w3.org/1999/xlink">
    <!-- Generator: Sketch 50.2 (55047) - http://www.bohemiancoding.com/sketch -->
    <title>logo_white</title>
    <desc>Created with Sketch.</desc>
    <defs></defs>
    <g id="Page-1" stroke="none" stroke-width="1" fill="none" fill-rule="evenodd">
        <g id="Desktop-HD" transform="translate(-30.000000, -37.000000)" fill="#FFFFFF">
            <g id="logo_white" transform="translate(30.000000, 37.000000)">
                <g id="logo_blue">
                    <path d="M8.25980573,10.0856842 C8.97013612,10.0856842 9.56094229,9.87147368 10.0317,9.44357895 C10.5024577,9.01568421 10.7378366,8.46252632 10.7378366,7.78515789 C10.7378366,7.14305263 10.5024577,6.61673684 10.0317,6.20673684 C9.56094229,5.79673684 8.97013612,5.59147368 8.25980573,5.59147368 L5.11547974,5.59147368 L5.11547974,10.0856842 L8.25980573,10.0856842 Z M9.24588062,1.33778947 C11.2175062,1.33778947 12.7985811,1.91726316 13.9885811,3.07673684 C15.1785811,4.23621053 15.7735811,5.76042105 15.7735811,7.65094737 C15.7735811,9.61305263 15.1476515,11.1867368 13.8952683,12.3730526 C12.642885,13.5588421 10.9684974,14.152 8.87262952,14.152 L5.11547974,14.152 L5.11547974,19.2614737 L5.24229075e-05,19.2614737 L5.24229075e-05,1.33778947 L9.24588062,1.33778947 Z" id="Fill-1"></path>
                    <path d="M25.9118568,14.6333684 C26.4539097,14.0623158 26.7244119,13.3581053 26.7244119,12.5196842 C26.7244119,11.6817895 26.4581035,10.9775789 25.9249626,10.4065263 C25.3923458,9.836 24.7438744,9.55073684 23.9800727,9.55073684 C23.2162709,9.55073684 22.5677996,9.836 22.0351828,10.4065263 C21.5020419,10.9775789 21.2357335,11.6817895 21.2357335,12.5196842 C21.2357335,13.3581053 21.5067599,14.0623158 22.0482885,14.6333684 C22.5903414,15.2038947 23.2340947,15.4891579 23.9800727,15.4891579 C24.7260507,15.4891579 25.3703282,15.2038947 25.9118568,14.6333684 M29.3224912,7.38389474 C30.7877115,8.72126316 31.5205837,10.4333684 31.5205837,12.5196842 C31.5205837,14.6065263 30.7877115,16.3138947 29.3224912,17.6428421 C27.8567467,18.9712632 26.0759405,19.6354737 23.9800727,19.6354737 C21.8842048,19.6354737 20.1033987,18.9712632 18.6381784,17.6428421 C17.1724339,16.3138947 16.4395617,14.6065263 16.4395617,12.5196842 C16.4395617,10.4333684 17.1724339,8.72126316 18.6381784,7.38389474 C20.1033987,6.04652632 21.8842048,5.37705263 23.9800727,5.37705263 C26.0759405,5.37705263 27.8567467,6.04652632 29.3224912,7.38389474" id="Fill-3"></path>
                    <path d="M42.0582696,14.6333684 C42.6003225,14.0623158 42.8708247,13.3581053 42.8708247,12.5196842 C42.8708247,11.6817895 42.6045163,10.9775789 42.0713753,10.4065263 C41.5387586,9.836 40.8902872,9.55073684 40.1264855,9.55073684 C39.3626837,9.55073684 38.7142123,9.836 38.1815956,10.4065263 C37.6484546,10.9775789 37.3821463,11.6817895 37.3821463,12.5196842 C37.3821463,13.3581053 37.6531727,14.0623158 38.1947013,14.6333684 C38.7367542,15.2038947 39.3805075,15.4891579 40.1264855,15.4891579 C40.8724634,15.4891579 41.516741,15.2038947 42.0582696,14.6333684 M45.468904,7.38389474 C46.9341242,8.72126316 47.6669965,10.4333684 47.6669965,12.5196842 C47.6669965,14.6065263 46.9341242,16.3138947 45.468904,17.6428421 C44.0031595,18.9712632 42.2223533,19.6354737 40.1264855,19.6354737 C38.0306176,19.6354737 36.2498115,18.9712632 34.7845912,17.6428421 C33.3188467,16.3138947 32.5859744,14.6065263 32.5859744,12.5196842 C32.5859744,10.4333684 33.3188467,8.72126316 34.7845912,7.38389474 C36.2498115,6.04652632 38.0306176,5.37705263 40.1264855,5.37705263 C42.2223533,5.37705263 44.0031595,6.04652632 45.468904,7.38389474" id="Fill-5"></path>
                    <polygon id="Fill-7" points="49.4521013 19.261 54.4348987 19.261 54.4348987 -5.26315789e-05 49.4521013 -5.26315789e-05"></polygon>
                    <path d="M66.6379031,14.6467368 C67.1348722,14.0851579 67.3838811,13.3756842 67.3838811,12.5198947 C67.3838811,11.6462105 67.1348722,10.9283158 66.6379031,10.3662105 C66.1404097,9.80463158 65.4830264,9.52410526 64.6662775,9.52410526 C63.9024758,9.52410526 63.2540044,9.80936842 62.7208634,10.3798947 C62.1882467,10.9509474 61.9214141,11.6635789 61.9214141,12.5198947 C61.9214141,13.3583158 62.1882467,14.0625263 62.7208634,14.6335789 C63.2540044,15.2041053 63.9024758,15.4893684 64.6662775,15.4893684 C65.4830264,15.4893684 66.1404097,15.2083158 66.6379031,14.6467368 M70.5151013,7.34357895 C71.7491366,8.672 72.3666784,10.3977895 72.3666784,12.5198947 C72.3666784,14.6241053 71.7491366,16.3409474 70.5151013,17.6693684 C69.2800176,18.9983158 67.7303965,19.662 65.8651894,19.662 C64.2306432,19.662 62.9164009,19.1630526 61.9214141,18.1646316 L61.9214141,19.2614737 L56.939141,19.2614737 L56.939141,-0.000105263158 L61.9214141,-0.000105263158 L61.9214141,6.84884211 C62.9164009,5.84989474 64.2306432,5.35042105 65.8651894,5.35042105 C67.7303965,5.35042105 69.2800176,6.01515789 70.5151013,7.34357895" id="Fill-9"></path>
                    <path d="M83.0771502,14.6333684 C83.6102912,14.0623158 83.8760753,13.3581053 83.8760753,12.5196842 C83.8760753,11.6633684 83.6102912,10.9507368 83.0771502,10.3796842 C82.5440093,9.80915789 81.8960621,9.52389474 81.1317361,9.52389474 C80.3149872,9.52389474 79.6581282,9.80442105 79.1606348,10.3665263 C78.6631414,10.9281053 78.4146568,11.646 78.4146568,12.5196842 C78.4146568,13.3754737 78.6631414,14.0849474 79.1606348,14.6465263 C79.6581282,15.2086316 80.3149872,15.4891579 81.1317361,15.4891579 C81.8960621,15.4891579 82.5440093,15.2038947 83.0771502,14.6333684 Z M88.8588727,19.2612632 L83.8760753,19.2612632 L83.8760753,18.1644211 C82.8816128,19.1628421 81.5673705,19.6623158 79.9328242,19.6623158 C78.0681414,19.6623158 76.5185203,18.9981053 75.2834366,17.6696842 C74.0494013,16.3407368 73.4318595,14.6238947 73.4318595,12.5196842 C73.4318595,10.3975789 74.0494013,8.67231579 75.2834366,7.34336842 C76.5185203,6.01494737 78.0681414,5.35021053 79.9328242,5.35021053 C81.5673705,5.35021053 82.8816128,5.85021053 83.8760753,6.84863158 L83.8760753,5.75178947 L88.8588727,5.75178947 L88.8588727,19.2612632 Z" id="Fill-10"></path>
                    <path d="M95.3867828,14.8204737 C95.6174436,15.6941579 96.284263,16.131 97.3856683,16.131 C97.8291661,16.131 98.1756815,16.0557368 98.4246903,15.9041579 C98.6731749,15.7525789 98.7974172,15.5604737 98.7974172,15.3288947 C98.7974172,14.9188947 98.3890427,14.651 97.5717696,14.5257368 L94.8803775,14.0715263 C92.2162454,13.5899474 90.8836551,12.2520526 90.8836551,10.0588947 C90.8836551,8.61415789 91.4524436,7.46836842 92.5889722,6.62152632 C93.7260251,5.77415789 95.1650339,5.35047368 96.9054744,5.35047368 C98.664263,5.35047368 100.093836,5.68047368 101.195241,6.34047368 C102.29717,7.00047368 103.007501,7.92731579 103.326756,9.12257895 L98.8503643,10.0057368 C98.7974172,9.66626316 98.5976859,9.35889474 98.2511705,9.08257895 C97.9051793,8.80573684 97.4653511,8.66784211 96.9322101,8.66784211 C96.0971132,8.66784211 95.6803511,8.93521053 95.6803511,9.47047368 C95.6803511,9.82731579 95.9728709,10.0678421 96.558959,10.1925789 L99.6236022,10.8078421 C100.955668,11.0578421 101.950655,11.5525789 102.607514,12.2925789 C103.264897,13.0331053 103.593589,13.9641579 103.593589,15.0878421 C103.593589,16.5325789 103.002783,17.6562632 101.821695,18.4583684 C100.640082,19.2615263 99.1261088,19.6620526 97.2787256,19.6620526 C95.5026374,19.6620526 94.0195934,19.3367895 92.8290692,18.6862632 C91.6390692,18.0346842 90.9014789,17.0588947 90.6173467,15.7567895 L95.3867828,14.8204737 Z" id="Fill-11"></path>
                    <path d="M110.308649,9.711 C109.882451,10.0141579 109.580495,10.4331053 109.402781,10.9683684 L113.986116,10.9683684 C113.647988,9.82731579 112.919834,9.25626316 111.801129,9.25626316 C111.232865,9.25626316 110.734847,9.40784211 110.308649,9.711 Z M118.808499,13.7236316 L109.349834,13.7236316 C109.509724,14.3836316 109.802244,14.8962632 110.228966,15.2620526 C110.655164,15.6273158 111.178869,15.8104737 111.801129,15.8104737 C112.937658,15.8104737 113.728195,15.3736316 114.172217,14.4994211 L118.621874,15.3820526 C118.071433,16.791 117.200689,17.8567895 116.010689,18.5794211 C114.820164,19.3015263 113.417327,19.6620526 111.801129,19.6620526 C109.740385,19.6620526 108.004138,18.9936316 106.591865,17.6562632 C105.179592,16.3188947 104.473455,14.6067895 104.473455,12.5199474 C104.473455,10.4157368 105.179592,8.69415789 106.591865,7.35678947 C108.004138,6.01942105 109.740385,5.35047368 111.801129,5.35047368 C113.861349,5.35047368 115.539931,6.01047368 116.836874,7.33047368 C118.133816,8.64942105 118.790675,10.4688947 118.808499,12.7873158 L118.808499,13.7236316 Z" id="Fill-12"></path>
                </g>
            </g>
        </g>
    </g>
</svg>